<?xml version="1.0" encoding="iso-8859-1"?>
<!-- Generator: Adobe Illustrator 19.0.0, SVG Export Plug-In . SVG Version: 6.00 Build 0)  -->
<svg version="1.1" id="Layer_1" xmlns="http://www.w3.org/2000/svg" xmlns:xlink="http://www.w3.org/1999/xlink" x="0px" y="0px"
	 viewBox="0 0 512 512" style="enable-background:new 0 0 512 512;" xml:space="preserve">
<path style="fill:#FFE365;" d="M256,512C114.511,512,0,397.503,0,256C0,114.511,114.497,0,256,0c141.49,0,256,114.497,256,256
	C512,397.49,397.503,512,256,512z"/>
<g>
	<path style="fill:#FFC733;" d="M256,0v512c141.503,0,256-114.51,256-256C512,114.497,397.49,0,256,0z"/>
	<path style="fill:#FFC733;" d="M371.345,238.933h-98.278v-98.278c0-9.425-7.641-17.067-17.067-17.067
		c-9.425,0-17.067,7.641-17.067,17.067v98.278h-98.278c-9.425,0-17.067,7.641-17.067,17.067c0,9.425,7.641,17.067,17.067,17.067
		h98.278v98.278c0,9.425,7.641,17.067,17.067,17.067c9.425,0,17.067-7.641,17.067-17.067v-98.278h98.278
		c9.425,0,17.067-7.641,17.067-17.067C388.411,246.575,380.77,238.933,371.345,238.933z"/>
</g>
<path style="fill:#FFAF00;" d="M371.345,238.933h-98.278v-98.278c0-9.425-7.641-17.067-17.067-17.067v264.822
	c9.425,0,17.067-7.641,17.067-17.067v-98.278h98.278c9.425,0,17.067-7.641,17.067-17.067
	C388.411,246.575,380.77,238.933,371.345,238.933z"/>
<g>
</g>
<g>
</g>
<g>
</g>
<g>
</g>
<g>
</g>
<g>
</g>
<g>
</g>
<g>
</g>
<g>
</g>
<g>
</g>
<g>
</g>
<g>
</g>
<g>
</g>
<g>
</g>
<g>
</g>
</svg>
