<svg height="512pt" viewBox="0 -95 512.0011 512" width="512pt" xmlns="http://www.w3.org/2000/svg"><g fill="#dfdce5"><path d="m277.046875 169.9375 7.914063 41.835938c1.742187 9.207031 5.335937 17.960937 10.566406 25.738281 7.671875 11.402343 11.773437 24.835937 11.773437 38.578125v35.886718h29.332031v-35.886718s-2.519531-19.40625-17.339843-48.503906c-14.816407-29.101563-12.453125-62.097657-12.453125-62.097657zm0 0"/><path d="m203.9375 169.9375-7.914062 41.835938c-1.738282 9.207031-5.335938 17.960937-10.566407 25.738281-7.671875 11.402343-11.769531 24.835937-11.769531 38.578125v35.886718h-29.335938v-35.886718s2.523438-19.40625 17.339844-48.503906c14.820313-29.101563 12.453125-62.097657 12.453125-62.097657zm0 0"/><path d="m441.683594 95.363281c-4.964844-15.378906-12.773438-29.246093-22.703125-41.128906-11.183594-3.320313-22.957031-5.097656-35.050781-5.097656h-175.253907c-25.007812 0-49.007812 9.851562-66.800781 27.421875-40.675781 40.167968-36.960938 106.890625 7.921875 142.296875 3.480469 2.742187 6.523437 5.910156 9.113281 9.390625 2.449219-5.234375 4.246094-10.765625 5.324219-16.472656h150.039063c1.742187 9.207031 5.335937 17.960937 10.566406 25.738281 7.671875 11.402343 11.769531 24.835937 11.769531 38.578125v35.886718h29.335937v-35.886718c0-13.742188 4.097657-27.175782 11.769532-38.578125l69.683594-124.457031zm0 0"/></g><path d="m42.050781 195.390625c0-10.15625-7.171875-18.390625-16.023437-18.390625-8.851563 0-16.027344 8.234375-16.027344 18.390625s7.175781 37.261719 16.027344 37.261719c8.851562 0 16.023437-27.105469 16.023437-37.261719zm0 0" fill="#a766b2"/><path d="m440.824219 124.097656s28.609375-5.492187 29.980469-34.332031c10.394531 7.414063 18.042968 29.566406 2.480468 48.0625zm0 0" fill="#a766b2"/><path d="m392.726562 123.976562s-28.609374-5.492187-29.984374-34.332031c-10.390626 7.414063-18.039063 29.566407-2.476563 48.0625zm0 0" fill="#a766b2"/><path d="m412.800781 216.234375c-9.4375-9.4375-32.347656-50.0625-38.929687-81.691406-.757813.59375-1.5 1.199219-2.230469 1.824219l-2.390625 3.753906c-5.859375-2.832032-13.445312-4.714844-21.421875-1.96875-5.496094 1.890625-10.628906 1.679687-15.035156.417968-.070313-.019531-.101563-.03125-.101563-.03125-1.695312 28.386719 20.503906 32.292969 26.402344 32.832032l.160156.53125c0 .003906-.273437 46.308594 9.992188 56.570312 12.855468 12.859375 24.824218 14.734375 24.824218 37.679688 0 14.441406 22.449219 17.109375 22.449219 17.109375s22.449219-2.667969 22.449219-17.109375c0-4.566406.480469-8.289063 1.339844-11.4375-1.164063-22.300782-13.878906-24.855469-27.507813-38.480469zm0 0" fill="#fff"/><path d="m463.789062 228.472656c9.835938-9.832031 9.996094-52.742187 9.992188-56.324218l.230469-.277344.0625.03125s29.785156-.210938 27.832031-32.917969c0 0-.03125.011719-.097656.03125-4.410156 1.257813-9.542969 1.472656-15.039063-.421875-7.625-2.625-14.894531-1.011719-20.640625 1.609375l-4.730468-3.835937c-12.082032-10.320313-27.75-16.554688-44.878907-16.554688-16.097656 0-30.902343 5.507812-42.648437 14.730469 6.582031 31.628906 29.492187 72.253906 38.929687 81.691406 13.625 13.625 26.34375 16.179687 27.507813 38.476563 3.464844-12.675782 13.183594-15.941407 23.480468-26.238282zm0 0" fill="#dfdce5"/><path d="m391.84375 252.007812c1.414062 3.671876 2.226562 8.199219 2.226562 14.144532 0 14.441406 22.449219 17.109375 22.449219 17.109375s22.449219-2.667969 22.449219-17.109375c0-5.945313.808594-10.472656 2.222656-14.144532zm0 0" fill="#a766b2"/><path d="m88.65625 79.214844c-8.585938 30.527344-1.550781 64.355468 20.417969 89 16.820312-6.085938 27.8125-23.683594 24.367187-42.476563-4.246094-23.160156-21.941406-41.4375-44.785156-46.523437zm0 0" fill="#a766b2"/><path d="m261.476562 57.109375c22.878907-6.917969 41.09375-24.574219 48.777344-47.109375h-97.554687c7.683593 22.535156 25.898437 40.191406 48.777343 47.109375zm0 0" fill="#a766b2"/><path d="m387.449219 192.734375h-.207031c-5.523438 0-10 4.476563-10 10s4.476562 10 10 10h.207031c5.519531 0 9.996093-4.476563 9.996093-10s-4.476562-10-9.996093-10zm0 0"/><path d="m445.527344 192.734375h-.203125c-5.523438 0-10 4.476563-10 10s4.476562 10 10 10h.203125c5.523437 0 10-4.476563 10-10s-4.476563-10-10-10zm0 0"/><path d="m228.367188 301.976562h-.128907c-5.523437 0-10 4.476563-10 10 0 5.523438 4.476563 10 10 10h.128907c5.523437 0 10-4.476562 10-10 0-5.523437-4.476563-10-10-10zm0 0"/><path d="m501.960938 301.976562h-126.015626v-25.886718c0-8.203125 1.683594-16.214844 4.921876-23.628906 2.199218 3.1875 3.203124 7.046874 3.203124 13.691406 0 18.40625 19.652344 25.65625 31.265626 27.039062.394531.046875.789062.070313 1.183593.070313 1.367188 0 8.371094-.957031 15.257813-3.988281 14.957031-6.589844 17.191406-17.316407 17.191406-23.121094 0-12.378906 3.433594-15.125 11.730469-21.757813 3.066406-2.453125 6.542969-5.230469 10.164062-8.851562 3.847657-3.847657 9.246094-12 11.726563-38.265625.59375-6.277344.890625-12.21875 1.042968-16.78125 5.578126-1.476563 12.621094-4.5 18.417969-10.695313 7.304688-7.8125 10.617188-18.382812 9.839844-31.414062-.1875-3.089844-1.667969-5.960938-4.226563-7.707031-2.558593-1.742188-5.660156-2.238282-8.601562-1.28125-3.003906.859374-6.042969.773437-9.039062-.257813-.117188-.042969-.242188-.074219-.363282-.113281 2.230469-6.429688 2.980469-13.234375 2.121094-20.046875-1.417969-11.210938-7.230469-21.695313-15.167969-27.355469-2.976562-2.121094-6.882812-2.449219-10.171875-.855469-3.292968 1.597657-5.449218 4.867188-5.621094 8.523438-.320312 6.691406-2.632812 11.644531-5.648437 15.300781l-3.972656-12.300781c-17.820313-55.203125-68.769531-92.292969-126.78125-92.292969h-223.910157c-46.585937 0-84.480468 37.898438-84.480468 84.480469v84.703125c-9.402344 4.285156-16.027344 14.417968-16.027344 26.207031 0 6.574219 2.171875 17.195313 5.285156 25.832031 5.128906 14.21875 12.105469 21.429688 20.742188 21.429688 8.632812 0 15.613281-7.210938 20.738281-21.429688 3.113281-8.636718 5.285156-19.257812 5.285156-25.832031 0-11.789063-6.625-21.921875-16.027343-26.207031v-84.703125c0-30.183594 20.847656-55.578125 48.898437-62.566407-3.335937 2.585938-6.535156 5.386719-9.582031 8.394532-11.324219 11.179687-19.824219 24.660156-25.078125 39.320312-.132813.289063-.253907.585938-.359375.890625-12.785156 36.820313-4.390625 77.121094 21.867187 105.613281.007813.007813.015625.019532.027344.027344.367187.398438.726563.804688 1.101563 1.203125.089843.09375.1875.175781.28125.261719 3.382812 3.542969 7.023437 6.871094 10.914062 9.945312 9.617188 7.582032 15.15625 18.953126 15.199219 31.199219l.304687 83.207031h-89.597656c-5.523438 0-10 4.476563-10 10 0 5.523438 4.476562 10 10 10h183.710938c5.523437 0 10-4.476562 10-10 0-5.523437-4.476563-10-10-10h-10.023438v-25.886718c0-11.796875 3.480469-23.207032 10.066406-32.996094 4.726563-7.023438 8.230469-14.644531 10.496094-22.71875h72.484375c2.269531 8.074219 5.773437 15.695312 10.496094 22.71875 6.585937 9.789062 10.066406 21.199219 10.066406 33v25.882812h-34.984375c-5.523438 0-10 4.476563-10 10 0 5.523438 4.476562 10 10 10h44.976562.007813 58.644531.011719 136.007813c5.519531 0 10-4.476562 10-10 0-5.523437-4.480469-10-10-10zm-475.933594-82.785156c-2.972656-6.347656-6.027344-17.640625-6.027344-23.800781 0-4.546875 2.757812-8.390625 6.027344-8.390625 3.265625 0 6.027344 3.84375 6.027344 8.390625 0 6.160156-3.058594 17.453125-6.027344 23.800781zm402.941406 46.960938c0 3.289062-7.53125 6.09375-12.449219 6.996094-4.921875-.902344-12.453125-3.707032-12.453125-6.996094 0-1.441406-.042968-2.820313-.125-4.148438h25.152344c-.082031 1.328125-.125 2.707032-.125 4.148438zm43.152344-150.847656c-.121094 3.839843-1.191406 8.496093-4.410156 13.3125-1.617188-1.371094-3.285157-2.671876-4.996094-3.90625 3.382812-2.554688 6.625-5.660157 9.40625-9.40625zm-177.597656-95.308594c-11.546876 18.554687-32.015626 30.289062-54.542969 30.289062-22.527344 0-43-11.734375-54.546875-30.289062zm-198.359376 140.472656h-11.550781c-12.078125-14.078125-19.339843-31.855469-20.390625-50.667969-.460937-8.324219.308594-16.585937 2.210938-24.539062l18.238281 3.34375c19.683594 3.609375 35.328125 19.253906 38.933594 38.933593 1.5 8.167969-.691407 16.511719-6.007813 22.890626-5.316406 6.382812-13.128906 10.039062-21.433594 10.039062zm259.78125 115.621094v25.886718h-9.3125v-25.886718c0-.238282-.019531-.46875-.035156-.699219-.136718-15.542969-4.777344-30.554687-13.460937-43.460937-4.5-6.6875-7.539063-14.09375-9.039063-22.015626l-7.910156-41.832031c-1.027344-5.425781-6.261719-8.992187-11.683594-7.96875-5.429687 1.027344-8.996094 6.257813-7.96875 11.683594l7.914063 41.835937c2.003906 10.597657 6.074219 20.507813 12.09375 29.460938 6.585937 9.789062 10.070312 21.199219 10.070312 32.996094v25.886718h-9.316406v-25.886718c0-15.789063-4.65625-31.058594-13.472656-44.164063-4.5-6.6875-7.539063-14.09375-9.039063-22.011719l-7.910156-41.832031c-1.027344-5.429687-6.261719-8.992187-11.683594-7.96875-5.425781 1.027344-8.992187 6.257813-7.96875 11.683594l5.40625 28.578125h-64.269531l5.40625-28.578125c1.023437-5.425781-2.542969-10.65625-7.96875-11.683594-5.425781-1.027343-10.65625 2.539063-11.683594 7.96875l-7.910156 41.832031c-1.5 7.921876-4.539063 15.328126-9.039063 22.011719-8.816406 13.101563-13.472656 28.375-13.472656 44.164063v25.886718h-11.792968v-25.886718c0-11.796875 3.480468-23.207032 10.066406-33 6.023437-8.949219 10.09375-18.859375 12.097656-29.457032l7.910156-41.835937c1.027344-5.425781-2.539062-10.65625-7.964844-11.683594-5.425781-1.023437-10.65625 2.542969-11.683593 7.96875l-7.914063 41.832031c-1.496094 7.921876-4.539062 15.328126-9.035156 22.015626-8.816406 13.097656-13.476562 28.371093-13.476562 44.160156v25.886718h-12.304688l-.300781-83.28125c-.050781-14.546874-5.289063-28.261718-14.621094-38.996093 10.992187-1.972657 21.007813-7.726563 28.289063-16.464844 9.125-10.953125 12.886718-25.277344 10.316406-39.300781-5.09375-27.800782-27.195313-49.902344-54.996094-55l-14.796875-2.710938c4.078125-7.945312 9.417969-15.28125 15.90625-21.683594 16.023437-15.824218 37.253906-24.542968 59.773437-24.542968h13.722657c13.355469 30.351562 43.476562 50.285156 77.09375 50.285156 33.613281 0 63.734375-19.933594 77.089843-50.285156h7.347657c49.300781 0 92.601562 31.523437 107.75 78.441406l4.523437 14.007812c-6.539062-1.726562-13.316406-2.628906-20.175781-2.628906-8.234375 0-16.355469 1.285156-24.089844 3.757813-5.589843-1.738281-18.898437-7.617188-19.695312-24.402344-.175781-3.65625-2.332031-6.921875-5.621094-8.519531-3.292969-1.597656-7.191406-1.273438-10.171875.851562-7.9375 5.660156-13.75 16.140625-15.167969 27.355469-.863281 6.8125-.109375 13.617187 2.117188 20.046875-2.753907.8125-5.542969.84375-8.300781.0625-2.914063-.878906-6.070313-.386719-8.578126 1.347656-2.53125 1.746094-4.113281 4.558594-4.296874 7.628906-.78125 13.03125 2.53125 23.597657 9.839843 31.410157 5.257813 5.621093 11.535157 8.628906 16.824219 10.242187.140625 4.667969.4375 10.984375 1.070312 17.683594 2.480469 26.265625 7.878907 34.414062 11.726563 38.261719 1.09375 1.09375 2.171875 2.101562 3.230469 3.054687-6.199219 11.496094-9.457032 24.3125-9.457032 37.492188zm14.714844-151.628906c-1.652344 1.175781-3.253906 2.425781-4.816406 3.730468-.085938-.023437-.175781-.050781-.261719-.074218-3.023437-4.683594-4.035156-9.195313-4.152343-12.933594 2.734374 3.679687 5.910156 6.746094 9.230468 9.277344zm-10.0625 37c-.082031 0-8.332031-.304688-13.441406-5.765626-1.601562-1.714843-2.78125-3.847656-3.539062-6.390624 2.519531-.292969 5.019531-.855469 7.46875-1.699219 1.707031-.589844 3.421874-.808594 5.105468-.769531 1.15625-.015626 4.382813.609374 4.972656.828124 5.757813 1.738282 10.425782 5.683594 11.773438 6.90625 1.691406 2.277344 2.539062 4.269532 2.914062 5.34375.898438 4.601563 4.945313 8.074219 9.808594 8.074219h.207032c5.519531 0 10-4.476562 10-10 0-1.605469-.390626-3.117187-1.0625-4.460937-.929688-2.730469-2.691407-6.71875-5.9375-11.046875-.023438-.035157-.050782-.070313-.078126-.101563l-.441406-.574218-.011718.007812c-.335938-.410156-.714844-.828125-1.132813-1.253906.132813.121094.257813.238281.375.359375-.144531-.148438-.296875-.292969-.445313-.429688-.566406-.566406-1.207031-1.144531-1.875-1.71875 9.328126-5.8125 20.15625-8.957031 31.261719-8.957031 11.582031 0 22.863281 3.417969 32.457031 9.71875-.542968.476562-1.0625.953125-1.53125 1.425781-.140624.128907-.277343.261719-.414062.398438.113281-.117188.234375-.230469.363281-.347657-.414062.421876-.792969.835938-1.125 1.242188l-.011719-.007812-.441406.574218c-.027344.035156-.054687.070313-.082031.109375-3.113281 4.152344-4.859375 7.992188-5.820313 10.707031-.472656.976563-.792968 2.035157-.929687 3.15625-.058594.273438-.105469.492188-.128906.628907l.078125.015625c-.007813.183594-.027344.367187-.027344.554687 0 5.519531 4.476562 9.996094 10 9.996094h.203125c4.871094 0 8.921875-3.480469 9.8125-8.089844.441406-1.132812 1.273437-2.898437 2.746094-4.882812 2.078125-1.886719 12.117187-10.3125 21.847656-6.964844 2.449219.84375 4.949219 1.410156 7.472656 1.699219-.742187 2.496094-1.894531 4.597656-3.449219 6.289062-5.117187 5.582032-13.542968 5.867188-13.53125 5.871094v.011719c-.074218-.003907-.148437-.011719-.222656-.011719-.019531 0-.042968 0-.058594 0-5.523437.03125-9.972656 4.535156-9.945312 10.054688.121094 21.910156-3.246094 45.476562-7.058594 49.441406-2.835937 2.835937-5.722656 5.144531-8.511718 7.375-4.71875 3.773437-9.511719 7.605468-13.136719 13.230468h-37.109375c-3.625-5.625-8.421875-9.457031-13.136719-13.230468-2.789063-2.230469-5.675781-4.539063-8.507813-7.371094-3.566406-3.707031-6.738281-24.519531-7.042968-45.109375.78125-1.410156 1.234375-3.035156 1.246094-4.765625.039062-5.523438-4.40625-10.03125-9.925782-10.070312zm0 0"/></svg>