<?xml version="1.0"?>
<svg xmlns="http://www.w3.org/2000/svg" viewBox="0 0 64 64" width="512" height="512"><path d="m13 3h29a1 1 0 0 1 1 1v56a1 1 0 0 1 -1 1h-38a1 1 0 0 1 -1-1v-47z" fill="#c9dfff"/><path d="m10 41h20v5h-20z" fill="#f0be59"/><path d="m7 46h20v5h-20z" fill="#e39d10"/><path d="m10 51h20v5h-20z" fill="#f0be59"/><path d="m7 56h20v5h-20z" fill="#f0be59"/><path d="m49 3h4v4h-4z" fill="#10bde0"/><path d="m13 12v-9l-10 10h9a1 1 0 0 0 1-1z" fill="#10bde0"/><path d="m59 29h-20a2 2 0 0 0 -2 2v10h24v-10a2 2 0 0 0 -2-2zm-2 8h-16v-4h16z" fill="#7d7d7d"/><path d="m49 41h-12v18a2 2 0 0 0 2 2h20a2 2 0 0 0 2-2v-18z" fill="#ebebeb"/><path d="m41 33h16v4h-16z" fill="#10bde0"/><circle cx="24" cy="32" fill="#e39d10" r="9"/><path d="m47 7h8v19h-8z" fill="#c9dfff"/><path d="m54 57.5h2v1h-2z"/><path d="m54 53.5h2v1h-2z"/><path d="m59 28h-20a3 3 0 0 0 -3 3v28a3 3 0 0 0 3 3h20a3 3 0 0 0 3-3v-28a3 3 0 0 0 -3-3zm-20 2h20a1 1 0 0 1 1 1v9h-22v-9a1 1 0 0 1 1-1zm11 12h10v8h-10zm-2 8h-10v-8h10zm-10 9v-7h10v8h-9a1 1 0 0 1 -1-1zm21 1h-9v-8h10v7a1 1 0 0 1 -1 1z"/><path d="m41 38h16a1 1 0 0 0 1-1v-4a1 1 0 0 0 -1-1h-16a1 1 0 0 0 -1 1v4a1 1 0 0 0 1 1zm1-4h14v2h-14z"/><path d="m40 47h2v2h2v-2h2v-2h-2v-2h-2v2h-2z"/><path d="m52 45h6v2h-6z"/><path d="m45.828 54.707-1.414-1.414-1.414 1.414-1.414-1.414-1.414 1.414 1.414 1.414-1.414 1.414 1.414 1.414 1.414-1.414 1.414 1.414 1.414-1.414-1.414-1.414z"/><path d="m52 55h6v2h-6z"/><path d="m34 32a10 10 0 1 0 -15.974 8h-8.026a1 1 0 0 0 -1 1v4h-2a1 1 0 0 0 -1 1v5a1 1 0 0 0 1 1h2v3h-2a1 1 0 0 0 -1 1v4h-2v-46h8a2 2 0 0 0 2-2v-8h28v22h2v-22a2 2 0 0 0 -2-2h-29v.009a.993.993 0 0 0 -.707.284l-10 10a.991.991 0 0 0 -.284.707h-.009v47a2 2 0 0 0 2 2h30v-2h-6v-3h2a1 1 0 0 0 1-1v-5a1 1 0 0 0 -1-1h-2v-3h2a1 1 0 0 0 1-1v-5a1 1 0 0 0 -1-1h-.026a9.98 9.98 0 0 0 4.026-8zm-22-26.586v6.586h-6.586zm-4 54.586v-3h18v3zm21-5h-18v-3h18zm-19-5h-2v-3h18v3zm19-8v3h-18v-3zm-13-10a8 8 0 1 1 8 8 8.009 8.009 0 0 1 -8-8z"/><path d="m25 26h-2v1.184a2.993 2.993 0 0 0 1 5.816 1 1 0 0 1 0 2h-3v2h2v1h2v-1.184a2.993 2.993 0 0 0 -1-5.816 1 1 0 0 1 0-2h3v-2h-2z"/><path d="m53 2h-4a1 1 0 0 0 -1 1v3h-1a1 1 0 0 0 -1 1v19h2v-18h6v18h2v-17h2v13h2v-13a2 2 0 0 0 -2-2h-2a1 1 0 0 0 -1-1h-1v-3a1 1 0 0 0 -1-1zm-3 2h2v2h-2z"/><path d="m17 10h17v2h-17z"/><path d="m6 16h34v2h-34z"/><path d="m6 20h12v2h-12z"/><path d="m31 20h9v2h-9z"/></svg>
