<svg height="480pt" viewBox="0 0 480 480.00378" width="480pt" xmlns="http://www.w3.org/2000/svg"><path d="m72 72.003906c-35.296875 0-64 28.699219-64 64v336h128v-336c0-35.300781-28.699219-64-64-64zm0 0" fill="#fdb62f"/><path d="m72 72.003906c-8.199219 0-16.398438 1.601563-24 4.699219 24.203125 9.800781 40 33.199219 40 59.300781v336h48v-336c0-35.300781-28.699219-64-64-64zm0 0" fill="#ff9f19"/><path d="m8 144.003906h128v16h-128zm0 0" fill="#f78b20"/><path d="m8 208.003906h128v16h-128zm0 0" fill="#f78b20"/><path d="m8 272.003906h128v16h-128zm0 0" fill="#f78b20"/><path d="m8 336.003906h128v16h-128zm0 0" fill="#f78b20"/><path d="m8 400.003906h128v16h-128zm0 0" fill="#f78b20"/><path d="m431.902344 471.003906-22.800782-175h14.898438v-16h-17l-6.199219-48h15.199219v-16h-17.296875l-14.703125-113c-.597656-4.398437-4.597656-7.5-8.898438-6.898437-3.601562.5-6.5 3.296875-6.898437 6.898437l-14.703125 113h-17.5v16h15.203125l-6.300781 48h-8.902344v16h6.902344l-22.800782 175c0 .300782 0 .699219.101563 1h111.699219c0-.300781 0-.699218 0-1zm-55.902344-305.199218 6.5 50.199218h-13.097656zm-8.597656 66.199218h17.300781l6.296875 48h-29.796875zm-8.402344 64h34l6.300781 48h-46.398437zm-8.296875 64h50.699219l13.597656 104h-77.796875zm0 0" fill="#fdb62f"/><path d="m368 472.003906h-256v-128l32-72 96-40 96 40 32 72zm0 0" fill="#dd4a43"/><path d="m345.402344 293.203125-9.402344-21.199219-96-40-96 40-9.398438 21.199219 105.398438-45.199219zm0 0" fill="#d13e37"/><path d="m112 344.003906h-32l40-96 120-48 120 48 40 96h-32l-32-72-96-40-96 40zm0 0" fill="#7a3e1a"/><path d="m192 392.003906h96v80h-96zm0 0" fill="#c9c9c8"/><path d="m152 328.003906h32v32h-32zm0 0" fill="#4398d1"/><path d="m296 328.003906h32v32h-32zm0 0" fill="#4398d1"/><path d="m224 272.003906h32v32h-32zm0 0" fill="#4398d1"/><path d="m224 272.003906h32v16h-32zm0 0" fill="#4388d1"/><path d="m448 472.003906h-80v-112l80 32zm0 0" fill="#d13e37"/><path d="m472 416.003906-104-40v-32l104 40zm0 0" fill="#7a3e1a"/><path d="m400 416.003906h16v24h-16zm0 0" fill="#4398d1"/><path d="m32 240.003906h16v16h-16zm0 0" fill="#ffc961"/><path d="m32 176.003906h16v16h-16zm0 0" fill="#ffc961"/><path d="m32 304.003906h16v16h-16zm0 0" fill="#ffc961"/><path d="m32 368.003906h16v16h-16zm0 0" fill="#ffc961"/><path d="m32 432.003906h16v16h-16zm0 0" fill="#ffc961"/><path d="m51.203125 124.003906-13.800781-8c7.199218-12.300781 20.398437-20 34.597656-20v16c-8.597656 0-16.5 4.601563-20.796875 12zm0 0" fill="#ffc961"/><g fill="#dd4a43"><path d="m376 72.003906v-64l-46.5 15.5 30.5 52.898438c4.902344-2.796875 10.402344-4.398438 16-4.398438zm0 0"/><path d="m376 197.003906v3l46.5-15.5-30.5-52.898437c-4.796875 2.796875-10.296875 4.398437-15.898438 4.398437v61zm0 0"/><path d="m348.402344 88.105469-55.5-32.101563-9.800782 48h61c-.101562-5.601562 1.5-11.101562 4.300782-15.898437zm0 0"/><path d="m403.601562 119.902344 55.5 32 9.800782-48h-61c.097656 5.703125-1.5 11.203125-4.300782 16zm0 0"/><path d="m360.101562 131.605469c-4.800781-2.800781-8.898437-6.800781-11.699218-11.703125l-52.902344 30.5-2.597656 1.5 36.699218 32.5 6-10.398438zm0 0"/><path d="m403.601562 88.105469 55.5-32-36.699218-32.5-21.601563 37.398437-8.898437 15.5c4.898437 2.699219 8.898437 6.699219 11.699218 11.601563zm0 0"/><path d="m335.5 174.105469 24.601562-42.5zm0 0"/><path d="m360.101562 76.402344-32-55.5-32.5 36.703125 52.898438 30.5c2.703125-4.902344 6.703125-8.902344 11.601562-11.703125zm0 0"/><path d="m360.101562 76.402344-30.601562-52.898438zm0 0"/><path d="m391.902344 131.605469 32.097656 55.5 32.5-36.703125-52.898438-30.5c-2.800781 4.902344-6.800781 8.902344-11.699218 11.703125zm0 0"/><path d="m403.601562 119.902344 52.898438 30.601562zm0 0"/><path d="m344 104.003906h-64l15.5 46.5 52.902344-30.5c-2.800782-4.898437-4.402344-10.398437-4.402344-16zm0 0"/><path d="m456.5 57.503906-52.898438 30.5c2.800782 4.800782 4.398438 10.300782 4.398438 15.898438h64zm0 0"/><path d="m348.402344 119.902344-52.902344 30.601562zm0 0"/><path d="m403.601562 88.105469 52.898438-30.601563zm0 0"/><path d="m360.101562 131.605469-24.5 42.5-6 10.398437-1.5 2.601563 48 9.796875v-60.898438c-5.699218 0-11.199218-1.601562-16-4.398437zm0 0"/><path d="m335.5 174.105469-6 10.398437zm0 0"/><path d="m391.902344 76.402344 9-15.5 23.097656-40-48-9.898438v61c5.601562 0 11.101562 1.601563 15.902344 4.398438zm0 0"/><path d="m391.902344 76.402344 9-15.5zm0 0"/></g><path d="m249.300781 392.003906h-18.597656l-38.703125 64.398438v15.601562h9.300781l30.699219-51.101562v51.101562h16v-51.101562l30.703125 51.101562h9.296875v-15.601562zm0 0" fill="#d8d8d8"/><path d="m176 384.003906h128v16h-128zm0 0" fill="#7a3e1a"/><path d="m192 400.003906h96v16h-96zm0 0" fill="#bfbfbe"/><path d="m176 400.003906h16v16h-16zm0 0" fill="#c43d37"/><path d="m288 400.003906h16v16h-16zm0 0" fill="#c43d37"/><path d="m296 328.003906h32v16h-32zm0 0" fill="#4388d1"/><path d="m152 328.003906h32v16h-32zm0 0" fill="#4388d1"/><path d="m400 416.003906h16v16h-16zm0 0" fill="#4388d1"/><path d="m376 136.003906c-5.597656 0-11.097656-1.601562-15.898438-4.398437l-.101562.097656v62l16 3.300781zm0 0" fill="#d13e37"/><path d="m376 11.003906v61c5.601562 0 11.101562 1.601563 15.902344 4.398438l.097656-.097656v-62zm0 0" fill="#d13e37"/><path d="m392 131.703125c-4.898438 2.800781-10.398438 4.199219-16 4.199219v.101562l31 53.699219 15.5-5.199219zm0 0" fill="#d13e37"/><path d="m329.5 23.503906 30.5 52.800782c4.902344-2.800782 10.402344-4.199219 16-4.199219v-.101563l-31-53.699218zm0 0" fill="#d13e37"/><path d="m403.703125 120.003906c-2.800781 4.800782-6.902344 8.800782-11.800781 11.601563l.097656.097656 53.703125 31 10.796875-12.199219zm0 0" fill="#d13e37"/><path d="m295.5 57.503906 52.800781 30.5c2.800781-4.800781 6.902344-8.800781 11.800781-11.601562l-.101562-.097656-53.699219-31zm0 0" fill="#d13e37"/><path d="m408 104.003906c0 5.601563-1.597656 11.101563-4.398438 15.898438l.101563.101562h62l3.296875-16zm0 0" fill="#d13e37"/><path d="m283 104.003906h61c0-5.601562 1.601562-11.101562 4.402344-15.898437l-.101563-.101563h-62zm0 0" fill="#d13e37"/><path d="m403.703125 88.003906c2.796875 4.898438 4.199219 10.398438 4.199219 16h.097656l53.703125-31-5.203125-15.5zm0 0" fill="#d13e37"/><path d="m295.5 150.503906 52.800781-30.5c-2.800781-4.898437-4.199219-10.398437-4.199219-16h-.101562l-53.699219 31zm0 0" fill="#d13e37"/><path d="m392 76.304688c4.800781 2.800781 8.800781 6.898437 11.601562 11.800781l.101563-.101563 31-53.699218-12.203125-10.800782zm0 0" fill="#d13e37"/><path d="m329.5 184.503906 30.5-52.800781c-4.796875-2.800781-8.796875-6.898437-11.597656-11.800781l-.101563.101562-31 53.699219zm0 0" fill="#d13e37"/><path d="m464.402344 50.003906-32.402344-28.800781c.203125-3.898437-2.5-7.398437-6.398438-8.199219l-42.5-8.699218c-.601562-1.101563-1.398437-2.101563-2.398437-2.800782-2.101563-1.49999975-4.800781-1.898437-7.203125-1.101562l-41.199219 13.703125c-1.097656-.703125-2.300781-1.101563-3.5-1.203125-2.597656-.296875-5.097656.703125-6.800781 2.703125l-28.796875 32.398437c-3.902344-.199218-7.402344 2.5-8.203125 6.398438l-8.699219 42.5c-1.097656.601562-2.097656 1.402344-2.800781 2.402344-1.5 2.097656-1.898438 4.800781-1.097656 7.199218l13.699218 41.199219c-2.101562 3.300781-1.5 7.699219 1.398438 10.300781l32.402344 28.800782c-.199219 3.898437 2.5 7.398437 6.398437 8.199218l28.902344 5.898438-2.902344 22.101562 15.902344 2.101563 2.5-19.101563c.199219.199219.398437.398438.597656.5 1.402344 1 3 1.5 4.699219 1.5.902344 0 1.703125-.101562 2.5-.398437l2.800781-.902344 10.699219 82.402344c.5 4 3.902344 6.898437 7.902344 6.898437h24v-16h-17l-6.199219-48h15.296875v-16h-17.296875l-1.902344-14.5 22.902344-7.601562c1.097656.703125 2.296875 1.101562 3.5 1.203125h.796875c2.300781 0 4.5-1 6-2.703125l28.800781-32.5h.300781c3.800782 0 7.101563-2.699219 7.800782-6.398438l8.699218-42.5c1.101563-.601562 2.101563-1.398437 2.800782-2.398437 1.5-2.101563 1.898437-4.800781 1.097656-7.203125l-13.699219-41.097656c2.199219-3.300782 1.601563-7.699219-1.398437-10.300782zm-157.902344 103.398438 39.703125-22.898438c1.097656 1.199219 2.199219 2.300782 3.398437 3.398438l-22.101562 38.101562zm-8-84.898438 39.601562 22.898438c-.5 1.5-1 3.101562-1.300781 4.601562h-44zm147-13.898437-39.699219 22.898437c-1.097656-1.199218-2.199219-2.300781-3.398437-3.398437l5.398437-9.300781 16.699219-28.800782zm-57.597656 70.097656c-.402344.199219-.699219.300781-1.101563.5l-2.898437-22.199219c-.601563-4.398437-4.601563-7.5-8.902344-6.898437-3.597656.5-6.5 3.296875-6.898438 6.898437l-2.898437 22.199219c-.402344-.199219-.703125-.300781-1.101563-.5-3.601562-2.097656-6.601562-5.097656-8.699218-8.699219-4.402344-7.300781-4.402344-16.5 0-23.800781 2.097656-3.597656 5.097656-6.597656 8.699218-8.699219 7.300782-4.398437 16.5-4.398437 23.800782 0 3.597656 2.101563 6.597656 5.101563 8.699218 8.699219 4.398438 7.300781 4.398438 16.5 0 23.800781-2 3.601563-5.101562 6.601563-8.699218 8.699219zm.699218-58.597656c-1.5-.5-3.101562-1-4.601562-1.300781v-44l27.5 5.597656zm-62-31.601563 22.898438 39.699219c-1.199219 1.101563-2.296875 2.199219-3.398438 3.402344l-38.101562-22.101563zm10.199219 77.5c.300781 1.601563.800781 3.101563 1.300781 4.601563l-38.101562 22-8.898438-26.601563zm5.601563 66.101563 20.898437-36.203125c1.5.5 3.101563 1 4.699219 1.300781v44l-27.5-5.597656zm41.597656-34.902344c1.601562-.300781 3.101562-.800781 4.601562-1.300781l22 38.101562-26.601562 8.898438zm41.402344 30.402344-16.101563-27.800781-6.800781-11.902344c1.203125-1.097656 2.300781-2.199219 3.402344-3.398438l38.199218 22zm28.097656-34-39.597656-22.902344c.5-1.5 1-3.097656 1.300781-4.699219h44zm-38.296875-43.601563c-.300781-1.601562-.800781-3.101562-1.300781-4.601562l38.097656-22 8.902344 26.601562zm-47.203125-31.199218c-1.597656.300781-3.097656.800781-4.597656 1.300781l-22-38.101563 26.597656-8.898437zm0 0"/><path d="m37.402344 116.003906 13.800781 8c4.296875-7.398437 12.199219-12 20.796875-12v-16c-14.296875 0-27.5 7.699219-34.597656 20zm0 0"/><path d="m8 480.003906h80v-16h-72v-48h72v-16h-72v-48h40v-16h-40v-48h64v-16h-64v-48h96v-16h-96v-48h112v48h16v-72c0-39.800781-32.199219-72-72-72-39.796875 0-72 32.199219-72 72v336c0 4.398438 3.601562 8 8 8zm8-344c0-30.898437 25.101562-56 56-56 30.902344 0 56 25.101563 56 56v8h-112zm0 0"/><path d="m112 480.003906h336c4.402344 0 8-3.601562 8-8v-53.601562l13.101562 5.101562c.898438.398438 1.898438.5 2.898438.5 4.402344 0 8-3.601562 8-8v-32c0-3.300781-2-6.300781-5.097656-7.5l-69.402344-26.699218c2.5-2.300782 3.203125-5.800782 1.902344-8.902344l-40-96c-.800782-2-2.402344-3.597656-4.402344-4.398438l-120-48c-1.898438-.800781-4-.800781-6 0l-120 48c-2 .800782-3.597656 2.398438-4.398438 4.398438l-40 96c-1.699218 4.101562.199219 8.800781 4.300782 10.5 1 .402344 2 .601562 3.097656.601562h24v120c0 4.398438 3.601562 8 8 8zm8-134.300781 30-67.5 90-37.5 90 37.5 30 67.5v118.300781h-64v-64h16v-16h-144v16h16v64h-64zm160 97.402344-25.898438-43.101563h25.898438zm-48-22.203125v43.101562h-25.898438zm-32 22.203125v-43.101563h25.902344zm48-22.203125 25.902344 43.101562h-25.902344zm192 43.101562h-64v-76.199218l64 25.597656zm24-59.601562-88-33.796875v-14.902344l88 33.800781zm-337.898438-150.199219 113.898438-45.597656 113.902344 45.597656 34.097656 81.800781h-14.796875l-29.902344-67.199218c-.800781-1.902344-2.300781-3.300782-4.199219-4.101563l-96-40c-2-.800781-4.199218-.800781-6.199218 0l-96 40c-1.902344.800781-3.402344 2.300781-4.199219 4.101563l-29.902344 67.199218h-14.800781zm0 0"/><path d="m192 360.003906v-32c0-4.398437-3.597656-8-8-8h-32c-4.398438 0-8 3.601563-8 8v32c0 4.398438 3.601562 8 8 8h32c4.402344 0 8-3.601562 8-8zm-16-8h-16v-16h16zm0 0"/><path d="m296 368.003906h32c4.402344 0 8-3.601562 8-8v-32c0-4.398437-3.597656-8-8-8h-32c-4.398438 0-8 3.601563-8 8v32c0 4.398438 3.601562 8 8 8zm8-32h16v16h-16zm0 0"/><path d="m224 312.003906h32c4.402344 0 8-3.601562 8-8v-32c0-4.398437-3.597656-8-8-8h-32c-4.398438 0-8 3.601563-8 8v32c0 4.398438 3.601562 8 8 8zm8-32h16v16h-16zm0 0"/><path d="m400 416.003906h16v24h-16zm0 0"/><path d="m32 240.003906h16v16h-16zm0 0"/><path d="m32 176.003906h16v16h-16zm0 0"/><path d="m32 304.003906h16v16h-16zm0 0"/><path d="m32 368.003906h16v16h-16zm0 0"/><path d="m32 432.003906h16v16h-16zm0 0"/></svg>