<svg id="Layer_5" enable-background="new 0 0 64 64" height="512" viewBox="0 0 64 64" width="512" xmlns="http://www.w3.org/2000/svg"><path d="m61.29 18.29-7.79-7.79-7.79-7.79c-.46-.46-1.07-.71-1.71-.71s-1.25.25-1.71.71l-7.29 7.29-9 9h10c2.43 0 4.53 1.45 5.47 3.53.34.75.53 1.59.53 2.47v7h4c1.1 0 2 .9 2 2v1l6-6 7.29-7.29c.46-.46.71-1.07.71-1.71s-.25-1.25-.71-1.71z" fill="#e6e9ed"/><circle cx="53" cy="19" fill="#5cd6b3" r="2"/><circle cx="44" cy="10" fill="#5cd6b3" r="2"/><path d="m42 25v7h-4v-6c0-1.1-.9-2-2-2h-22c-1.1 0-2 .9-2 2v6h-4v-7c0-3.31 2.69-6 6-6h12 10c2.43 0 4.53 1.45 5.47 3.53.34.75.53 1.59.53 2.47z" fill="#969faa"/><path d="m21 50v12h-13c-2.21 0-4-1.79-4-4v-20h12v10c0 1.1.9 2 2 2z" fill="#e6e9ed"/><path d="m46 44v2l-2.83 2.83c-.75.75-1.17 1.77-1.17 2.83v6.34c0 2.21 1.79 4 4 4h-17v-12h3c1.1 0 2-.9 2-2v-10h12z" fill="#e6e9ed"/><path d="m21 50h8v12h-8z" fill="#ffeaa7"/><path d="m62 51.66v6.34c0 2.21-1.79 4-4 4h-12c-2.21 0-4-1.79-4-4v-6.34c0-1.06.42-2.08 1.17-2.83l2.83-2.83h12l2.83 2.83c.75.75 1.17 1.77 1.17 2.83z" fill="#cf9e76"/><path d="m58 51v6c0 .55-.45 1-1 1h-10c-.55 0-1-.45-1-1v-6c0-.55.45-1 1-1h10c.55 0 1 .45 1 1z" fill="#5cd6b3"/><path d="m58 46h-12v-2c0-1.1.9-2 2-2h2v-4c0-.55.22-1.05.59-1.41.36-.37.86-.59 1.41-.59 1.1 0 2 .9 2 2v4h2c1.1 0 2 .9 2 2z" fill="#b27946"/><g fill="#fcd770"><path d="m16 32v6h-12c-1.1 0-2-.9-2-2v-2c0-1.1.9-2 2-2h4 4z"/><path d="m46 32c1.1 0 2 .9 2 2v1 1c0 1.1-.9 2-2 2h-12v-6h4 4z"/><path d="m34 38v10c0 1.1-.9 2-2 2h-3-8-3c-1.1 0-2-.9-2-2v-10-6h18z"/></g><path d="m30 39v4h-3v3h-4v-3h-3v-4h3v-3h4v3z" fill="#e6e9ed"/><path d="m22 47h6v-3h3v-6h-3v-3h-6v3h-3v6h3zm-1-5v-2h3v-3h2v3h3v2h-3v3h-2v-3z"/><path d="m24 57h2v2h-2z"/><path d="m24 53h2v2h-2z"/><path d="m44 13c1.654 0 3-1.346 3-3s-1.346-3-3-3-3 1.346-3 3 1.346 3 3 3zm0-4c.552 0 1 .448 1 1s-.448 1-1 1-1-.448-1-1 .448-1 1-1z"/><path d="m53 16c-1.654 0-3 1.346-3 3s1.346 3 3 3 3-1.346 3-3-1.346-3-3-3zm0 4c-.552 0-1-.448-1-1s.448-1 1-1 1 .448 1 1-.448 1-1 1z"/><path d="m59 45.586v-1.586c0-1.654-1.346-3-3-3h-1v-3c0-1.654-1.346-3-3-3s-3 1.346-3 3v3h-1c-.352 0-.686.072-1 .184v-2.369c1.161-.414 2-1.514 2-2.816v-.586l13-13c.645-.645 1-1.502 1-2.414s-.355-1.77-1-2.414l-15.586-15.585c-1.289-1.289-3.539-1.289-4.828 0l-16 16h-11.586c-3.859 0-7 3.141-7 7v6h-3c-1.654 0-3 1.346-3 3v2c0 1.302.839 2.402 2 2.816v19.184c0 2.757 2.243 5 5 5h38 12c2.757 0 5-2.243 5-5v-6.343c0-1.336-.521-2.592-1.465-3.536zm-11-2.586h3v-5c0-.552.448-1 1-1s1 .448 1 1v5h3c.552 0 1 .448 1 1v1h-10v-1c0-.552.448-1 1-1zm-5.974 18h-12.026v-10h2c1.654 0 3-1.346 3-3v-9h10v5 1.586l-2.535 2.535c-.944.944-1.465 2.2-1.465 3.536v6.343c0 1.13.391 2.162 1.026 3zm-5.026-30h-24v-5c0-.552.448-1 1-1h22c.552 0 1 .448 1 1zm-20 2h16v15c0 .552-.448 1-1 1h-14c-.552 0-1-.448-1-1zm11 18v10h-6v-10zm19-15c0 .552-.448 1-1 1h-11v-4h11c.552 0 1 .448 1 1zm-4.367-13.219 1.867-1.867 8.086 8.086-3.826 3.826c-.458-1.072-1.522-1.826-2.76-1.826h-3v-6c0-.776-.132-1.521-.367-2.219zm18.367-2.781c0 .378-.147.732-.414 1l-6.586 6.586-8.086-8.086 7.586-7.586 7.086 7.086c.267.268.414.622.414 1zm-18-16.586c.535-.533 1.465-.533 2 0l7.086 7.086-7.586 7.586-8.086-8.086zm-8 8 8.086 8.086-1.414 1.414c-1.273-1.761-3.338-2.914-5.672-2.914h-7.586zm-26 13.586c0-2.757 2.243-5 5-5h22c2.757 0 5 2.243 5 5v6h-2v-5c0-1.654-1.346-3-3-3h-22c-1.654 0-3 1.346-3 3v5h-2zm-6 9c0-.552.448-1 1-1h11v4h-11c-.552 0-1-.448-1-1zm2 24v-19h10v9c0 1.654 1.346 3 3 3h2v10h-12c-1.654 0-3-1.346-3-3zm56 0c0 1.654-1.346 3-3 3h-12c-1.654 0-3-1.346-3-3v-6.343c0-.802.312-1.556.879-2.122l2.535-2.535h11.172l2.535 2.535c.567.567.879 1.32.879 2.122z"/><path d="m57 49h-10c-1.103 0-2 .897-2 2v6c0 1.103.897 2 2 2h10c1.103 0 2-.897 2-2v-6c0-1.103-.897-2-2-2zm-10 8v-6h10l.002 6z"/></svg>