<svg height="511pt" viewBox="1 -108 511.999 511" width="511pt" xmlns="http://www.w3.org/2000/svg"><path d="m366.660156 13.191406c-68.105468 0-124.671875 49.398438-135.832031 114.320313 18.878906 1.332031 44.335937 14.097656 44.335937 29.664062 0 14.851563-23.175781 27.160157-41.703124 29.414063 15.683593 58.890625 69.371093 102.277344 133.199218 102.277344 76.125 0 137.839844-61.710938 137.839844-137.835938 0-76.128906-61.714844-137.839844-137.839844-137.839844zm0 0" fill="#fff5cc"/><path d="m465.324219 124.738281c0 23.402344-18.96875 42.375-42.371094 42.375s-42.375-18.972656-42.375-42.375c0-23.402343 18.972656-42.375 42.375-42.375s42.371094 18.972657 42.371094 42.375zm0 0" fill="#ffc477"/><path d="m435.324219 124.738281c0 23.402344-18.96875 42.375-42.371094 42.375s-42.375-18.972656-42.375-42.375c0-23.402343 18.972656-42.375 42.375-42.375s42.371094 18.972657 42.371094 42.375zm0 0" fill="#ff7956"/><path d="m240.738281 37.785156c0 16.449219-28.441406 29.785156-47.492187 29.785156-19.050782 0-27.496094-13.335937-27.496094-29.785156 0-16.449218 8.445312-29.785156 27.496094-29.785156 19.050781 0 47.492187 13.335938 47.492187 29.785156zm0 0" fill="#bddbff"/><path d="m139.683594 20.742188h26.066406v34.085937h-26.066406zm0 0" fill="#57a4ff"/><path d="m224.070312 252.558594c0 16.453125-28.441406 29.789062-47.496093 29.789062-19.050781 0-27.492188-13.335937-27.492188-29.789062 0-16.449219 8.441407-29.785156 27.492188-29.785156 19.054687 0 47.496093 13.335937 47.496093 29.785156zm0 0" fill="#bddbff"/><path d="m123.015625 235.515625h26.066406v34.089844h-26.066406zm0 0" fill="#57a4ff"/><path d="m275.164062 157.175781c0-16.449219-28.441406-29.785156-47.492187-29.785156s-27.496094 13.335937-27.496094 29.785156 8.445313 29.785157 27.496094 29.785157 47.492187-13.335938 47.492187-29.785157zm0 0" fill="#bddbff"/><path d="m174.109375 140.132812h26.066406v34.085938h-26.066406zm0 0" fill="#57a4ff"/><path d="m263.464844 186.589844c18.523437-2.253906 41.703125-14.5625 41.703125-29.414063 0-15.566406-25.460938-28.332031-44.339844-29.664062 10.332031-60.089844 59.558594-106.882813 120.832031-113.515625-4.925781-.53125-9.929687-.804688-15-.804688-68.105468 0-124.667968 49.398438-135.832031 114.320313 18.878906 1.332031 44.339844 14.097656 44.339844 29.664062 0 14.851563-23.179688 27.160157-41.703125 29.414063 15.679687 58.890625 69.367187 102.277344 133.195312 102.277344 5.070313 0 10.074219-.273438 15.003906-.804688-57.117187-6.183594-103.765624-47.257812-118.199218-101.472656zm0 0" fill="#ffc477"/><path d="m380.578125 124.738281c0-18.121093 11.375-33.585937 27.375-39.640625-4.664063-1.765625-9.71875-2.734375-15-2.734375-23.402344 0-42.375 18.972657-42.375 42.375 0 23.402344 18.972656 42.375 42.375 42.375 5.28125 0 10.335937-.964843 15-2.734375-16-6.054687-27.375-21.519531-27.375-39.640625zm0 0" fill="#ff3f62"/><g fill="#57a4ff"><path d="m195.75 37.785156c0-11.992187 4.488281-22.328125 14.300781-27.050781-5.789062-1.757813-11.644531-2.734375-16.804687-2.734375-19.050782 0-27.496094 13.335938-27.496094 29.785156 0 16.449219 8.445312 29.785156 27.496094 29.785156 5.160156 0 11.015625-.980468 16.804687-2.734374-9.8125-4.722657-14.300781-15.058594-14.300781-27.050782zm0 0"/><path d="m179.082031 252.558594c0-11.988282 4.488281-22.328125 14.300781-27.050782-5.789062-1.753906-11.644531-2.734374-16.808593-2.734374-19.050781 0-27.492188 13.335937-27.492188 29.785156 0 16.453125 8.441407 29.789062 27.492188 29.789062 5.164062 0 11.019531-.980468 16.808593-2.734375-9.8125-4.722656-14.300781-15.0625-14.300781-27.054687zm0 0"/><path d="m230.175781 157.175781c0-11.992187 4.488281-22.328125 14.300781-27.050781-5.789062-1.753906-11.640624-2.734375-16.804687-2.734375-19.050781 0-27.496094 13.335937-27.496094 29.785156s8.445313 29.785157 27.496094 29.785157c5.164063 0 11.015625-.976563 16.804687-2.734376-9.8125-4.722656-14.300781-15.058593-14.300781-27.050781zm0 0"/></g><path d="m392.953125 174.613281c27.5 0 49.875-22.375 49.875-49.875s-22.375-49.875-49.875-49.875c-27.503906 0-49.875 22.375-49.875 49.875s22.371094 49.875 49.875 49.875zm0-84.75c19.230469 0 34.875 15.644531 34.875 34.875s-15.644531 34.875-34.875 34.875-34.875-15.644531-34.875-34.875 15.644531-34.875 34.875-34.875zm0 0"/><path d="m47.425781 33.285156c5.109375 0 7.234375 1.660156 10.761719 4.414063 4.105469 3.199219 9.722656 7.585937 19.992188 7.585937 10.269531 0 15.886718-4.386718 19.992187-7.585937 3.523437-2.753907 5.652344-4.414063 10.761719-4.414063 5.105468 0 7.234375 1.660156 10.761718 4.414063 2.96875 2.316406 6.738282 5.257812 12.492188 6.703125v17.925781h33.410156c6.089844 8.101563 15.675782 12.742187 27.648438 12.742187 21.894531 0 54.996094-14.871093 54.996094-37.285156 0-22.414062-33.101563-37.285156-54.996094-37.285156-11.972656 0-21.558594 4.640625-27.648438 12.742188h-33.410156v15.023437c-1.042969-.65625-2.074219-1.464844-3.261719-2.390625-4.105469-3.203125-9.722656-7.589844-19.992187-7.589844-10.269532 0-15.886719 4.386719-19.988282 7.589844-3.527343 2.75-5.65625 4.410156-10.761718 4.410156-5.109375 0-7.238282-1.660156-10.765625-4.410156-4.101563-3.203125-9.722657-7.589844-19.992188-7.589844s-15.890625 4.386719-19.992187 7.589844c-3.527344 2.75-5.65625 4.410156-10.761719 4.410156v15c10.265625 0 15.886719-4.382812 19.988281-7.585937 3.527344-2.753907 5.65625-4.414063 10.765625-4.414063zm145.820313-17.785156c17.566406 0 39.992187 12.496094 39.992187 22.285156 0 9.789063-22.425781 22.285156-39.992187 22.285156-17.398438 0-19.996094-13.960937-19.996094-22.285156 0-8.324218 2.597656-22.285156 19.996094-22.285156zm-46.0625 12.742188h11.066406v19.085937h-11.066406zm0 0"/><path d="m300.738281 224.238281h15v15h-15zm0 0"/><path d="m355.90625 202.570312h15v15h-15zm0 0"/><path d="m306.90625 60.070312h15v15h-15zm0 0"/><path d="m348.40625 39.570312h15v15h-15zm0 0"/><path d="m317.574219 184.171875h15v15h-15zm0 0"/><path d="m176.574219 215.273438c-11.96875 0-21.554688 4.640624-27.644531 12.742187h-33.414063v15.023437c-1.039063-.65625-2.070313-1.460937-3.261719-2.390624-4.101562-3.203126-9.722656-7.585938-19.988281-7.585938-10.269531 0-15.886719 4.382812-19.992187 7.585938-3.527344 2.753906-5.652344 4.414062-10.761719 4.414062s-7.238281-1.660156-10.765625-4.414062c-4.101563-3.203126-9.722656-7.585938-19.988282-7.585938-10.269531 0-15.890624 4.382812-19.992187 7.585938-3.527344 2.75-5.65625 4.414062-10.765625 4.414062v15c10.269531 0 15.890625-4.386719 19.992188-7.589844 3.527343-2.75 5.65625-4.410156 10.765624-4.410156 5.105469 0 7.234376 1.660156 10.761719 4.410156 4.101563 3.203125 9.722657 7.589844 19.992188 7.589844s15.886719-4.386719 19.992187-7.589844c3.523438-2.75 5.652344-4.410156 10.761719-4.410156 5.105469 0 7.234375 1.660156 10.761719 4.410156 2.96875 2.320313 6.738281 5.261719 12.488281 6.703125v17.929688h33.414063c6.089843 8.101562 15.675781 12.742187 27.648437 12.742187 21.894531 0 54.992187-14.871094 54.992187-37.285156 0-22.417969-33.101562-37.289062-54.996093-37.289062zm-34.992188 46.832031h-11.066406v-19.089844h11.066406zm34.992188 12.742187c-17.394531 0-19.992188-13.964844-19.992188-22.289062 0-8.320313 2.597657-22.285156 19.992188-22.285156 17.570312 0 39.996093 12.5 39.996093 22.285156 0 9.789062-22.425781 22.289062-39.996093 22.289062zm0 0"/><path d="m200.023438 181.71875c6.089843 8.101562 15.675781 12.742188 27.648437 12.742188 21.894531 0 54.992187-14.871094 54.992187-37.285157 0-22.414062-33.097656-37.285156-54.992187-37.285156-11.972656 0-21.558594 4.640625-27.648437 12.742187h-33.414063v17.929688c-5.75 1.445312-9.515625 4.382812-12.488281 6.703125-3.527344 2.75-5.65625 4.410156-10.761719 4.410156-5.109375 0-7.238281-1.660156-10.761719-4.410156-4.105468-3.203125-9.722656-7.589844-19.992187-7.589844s-15.886719 4.386719-19.992188 7.589844c-3.527343 2.75-5.652343 4.410156-10.761719 4.410156-5.109374 0-7.238281-1.660156-10.765624-4.410156-4.101563-3.203125-9.722657-7.589844-19.992188-7.589844v15c5.109375 0 7.238281 1.664063 10.765625 4.414063 4.101563 3.203125 9.722656 7.585937 19.992187 7.585937 10.265626 0 15.886719-4.382812 19.992188-7.585937 3.523438-2.75 5.652344-4.414063 10.761719-4.414063s7.238281 1.664063 10.761719 4.414063c4.105468 3.203125 9.722656 7.585937 19.992187 7.585937 10.265625 0 15.886719-4.382812 19.988281-7.585937 1.191406-.929688 2.222656-1.734375 3.261719-2.390625v15.023437h33.414063zm27.648437-46.828125c17.566406 0 39.992187 12.496094 39.992187 22.285156 0 9.789063-22.425781 22.285157-39.992187 22.285157-17.398437 0-19.996094-13.960938-19.996094-22.285157s2.597657-22.285156 19.996094-22.285156zm-46.0625 12.742187h11.066406v19.085938h-11.066406zm0 0"/><path d="m366.660156 5.691406c-62.914062 0-118.398437 40.128906-138.0625 99.859375l14.25 4.6875c17.632813-53.5625 67.390625-89.546875 123.8125-89.546875 71.867188 0 130.339844 58.46875 130.339844 130.335938 0 71.871094-58.472656 130.339844-130.339844 130.339844-51.988281 0-98.945312-30.832032-119.632812-78.550782l-13.761719 5.96875c23.0625 53.203125 75.425781 87.582032 133.394531 87.582032 80.140625 0 145.339844-65.199219 145.339844-145.339844s-65.199219-145.335938-145.339844-145.335938zm0 0"/><path d="m392.953125 149.601562c-6.371094 0-12.738281-2.425781-17.589844-7.273437l10.605469-10.609375c3.851562 3.851562 10.113281 3.851562 13.964844 0 3.851562-3.847656 3.851562-10.113281 0-13.960938l10.605468-10.605468c9.699219 9.695312 9.699219 25.476562 0 35.175781-4.847656 4.847656-11.21875 7.273437-17.585937 7.273437zm0 0" fill="#fff"/><path d="m366.660156 271.367188v-15c40.390625 0 77.746094-23.625 95.167969-60.191407l13.539063 6.453125c-9.648438 20.25-24.734376 37.398438-43.632813 49.589844-19.417969 12.527344-41.917969 19.148438-65.074219 19.148438zm112.863282-78.5625-14.0625-5.21875c1.617187-4.367188 2.957031-8.878907 3.976562-13.414063l14.636719 3.292969c-1.167969 5.1875-2.699219 10.347656-4.550781 15.339844zm6.425781-25.835938-14.871094-1.976562c.613281-4.597657.921875-9.292969.921875-13.960938h15c0 5.324219-.355469 10.6875-1.050781 15.9375zm0 0" fill="#fff"/></svg>