<?xml version="1.0" standalone="no"?>
<!DOCTYPE svg PUBLIC "-//W3C//DTD SVG 20010904//EN"
 "http://www.w3.org/TR/2001/REC-SVG-20010904/DTD/svg10.dtd">
<svg version="1.0" xmlns="http://www.w3.org/2000/svg"
 width="1280.000000pt" height="815.000000pt" viewBox="0 0 1280.000000 815.000000"
 preserveAspectRatio="xMidYMid meet">
<metadata>
Created by potrace 1.15, written by Peter Selinger 2001-2017
</metadata>
<g transform="translate(0.000000,815.000000) scale(0.100000,-0.100000)"
fill="#000000" stroke="none">
<path d="M1700 8130 c-220 -32 -186 -13 -371 -208 -186 -197 -285 -325 -294
-380 -9 -50 -7 -47 -70 -127 -65 -81 -138 -223 -160 -310 -11 -41 -19 -152
-26 -345 -12 -320 -32 -481 -78 -619 -42 -124 -134 -327 -341 -751 -99 -201
-191 -400 -205 -443 -15 -46 -30 -119 -35 -180 -10 -117 -26 -190 -76 -355
-47 -154 -53 -219 -24 -294 27 -72 99 -153 184 -207 52 -32 128 -71 141 -71
10 0 38 161 42 247 11 194 -42 384 -148 540 -35 50 -35 69 -9 208 31 160 67
250 242 609 177 365 264 558 296 656 49 152 89 430 61 430 -10 0 -10 3 -3 8 8
4 15 92 22 252 12 275 21 320 92 448 22 39 43 72 45 72 2 0 1 -30 -2 -67 -6
-82 13 -228 102 -756 87 -520 111 -697 146 -1067 7 -69 13 -287 14 -485 1
-198 8 -439 15 -535 12 -156 12 -190 -4 -310 -22 -179 -54 -316 -126 -540 -89
-279 -150 -497 -150 -538 0 -20 9 -134 20 -252 27 -282 37 -800 21 -1095 -12
-224 -27 -416 -37 -470 -4 -26 3 -40 53 -99 94 -112 98 -117 98 -161 0 -22 -3
-49 -8 -60 -6 -19 0 -22 75 -38 56 -11 127 -17 218 -17 152 1 348 14 358 24
12 13 -60 137 -108 186 -33 34 -61 52 -91 60 -62 16 -96 53 -121 130 -18 56
-22 95 -26 285 -6 324 24 591 96 840 49 171 93 261 263 540 91 149 199 326
240 394 64 107 74 119 77 95 1 -16 9 -69 17 -118 17 -102 20 -347 5 -449 -6
-37 -21 -100 -35 -139 -49 -141 -49 -141 95 -794 82 -368 110 -559 110 -747 0
-60 5 -128 11 -153 14 -54 58 -104 91 -104 40 0 124 -48 149 -85 15 -21 38
-40 59 -46 20 -7 141 -14 288 -16 219 -4 252 -3 252 10 0 41 -294 377 -330
377 -6 0 -10 19 -10 43 0 23 -13 106 -30 185 -16 78 -43 240 -61 360 -57 402
-42 539 105 949 35 98 77 221 92 273 27 91 31 98 92 155 78 73 163 113 236
111 49 -1 50 -2 57 -36 4 -19 12 -80 18 -134 21 -183 54 -256 117 -256 49 0
89 23 108 64 20 43 21 60 11 206 -7 107 -6 117 13 140 18 22 29 25 100 28 132
6 143 -21 97 -243 -13 -66 -25 -130 -25 -142 0 -33 37 -53 96 -53 41 0 59 5
82 25 38 32 71 100 80 162 4 27 11 47 15 46 5 -1 76 -54 160 -119 83 -64 197
-148 254 -186 98 -66 256 -148 285 -148 8 0 29 -33 48 -77 19 -42 83 -163 143
-267 153 -266 147 -252 141 -371 -5 -83 -2 -114 16 -180 57 -213 23 -530 -84
-785 -44 -105 -55 -145 -71 -273 -9 -67 -23 -148 -32 -180 -9 -32 -13 -60 -10
-64 11 -11 139 15 157 32 10 9 20 33 23 53 2 20 28 102 56 182 29 80 84 248
122 375 39 126 86 273 106 325 38 104 140 320 151 320 4 0 3 -120 -1 -266 -9
-293 -14 -254 56 -384 38 -70 65 -180 68 -276 3 -122 -11 -254 -32 -296 -11
-21 -19 -47 -19 -59 0 -20 4 -21 60 -17 105 8 98 -26 102 471 4 422 5 435 31
570 15 76 43 228 62 339 19 110 36 203 39 205 3 3 7 -5 10 -18 3 -13 25 -109
50 -214 128 -531 138 -630 116 -1130 -9 -216 -20 -265 -91 -407 -16 -32 -29
-71 -29 -88 0 -27 3 -30 33 -30 17 0 55 -3 83 -6 51 -6 51 -6 74 32 13 22 29
42 36 46 17 11 30 68 75 338 41 244 50 278 129 484 85 222 94 297 50 434 -26
81 -25 103 4 189 13 38 31 114 39 169 22 137 53 235 72 227 9 -3 17 -15 20
-27 101 -449 147 -605 200 -684 63 -92 104 -186 115 -258 12 -86 35 -644 34
-821 l-1 -132 30 -11 c44 -15 58 -13 123 16 33 15 60 28 61 29 2 1 -6 33 -17
73 -64 231 -65 415 -4 894 l25 198 -31 77 c-17 43 -40 91 -50 108 -55 89 -88
354 -71 570 32 396 39 447 79 570 21 65 26 100 26 190 1 128 -14 169 -93 257
-141 158 -374 273 -592 293 -96 9 -145 -1 -378 -76 -367 -119 -523 -145 -836
-135 -120 4 -221 8 -222 10 -5 5 65 108 98 143 37 40 36 49 -3 73 -24 14 -51
20 -98 20 -88 0 -116 -10 -196 -68 l-69 -50 -170 -12 c-93 -6 -224 -18 -290
-25 -117 -13 -120 -14 -147 -46 l-28 -33 0 31 c0 35 30 77 69 98 16 8 82 23
147 34 277 47 366 105 458 299 16 34 35 62 42 62 23 0 306 -67 444 -105 371
-103 412 -110 670 -110 354 1 620 57 1240 265 432 145 532 173 625 173 73 0
181 -18 190 -32 12 -20 55 -704 55 -879 0 -140 -1 -145 -36 -240 -84 -224 -99
-339 -70 -527 24 -154 27 -206 12 -280 -8 -38 -32 -160 -54 -270 -22 -110 -48
-251 -58 -313 -17 -108 -17 -119 -2 -211 20 -117 51 -203 87 -243 l27 -30 218
8 218 7 15 35 c19 46 19 164 0 217 -8 22 -36 84 -61 139 -73 156 -77 175 -66
334 16 213 59 522 78 558 6 11 34 51 62 89 29 39 65 97 81 130 16 33 29 56 29
52 0 -30 46 -227 71 -306 35 -111 35 -113 24 -571 -7 -304 -6 -341 9 -395 24
-82 92 -210 137 -258 l38 -39 208 7 c114 4 212 10 217 13 5 2 6 44 4 93 -6 96
-16 121 -150 369 -45 83 -60 121 -67 176 -15 99 -34 529 -27 588 3 31 25 87
56 149 88 171 114 327 86 522 -8 61 -18 155 -21 210 -8 108 -2 134 41 197 27
39 132 118 158 118 8 0 30 9 48 20 26 16 51 20 117 20 86 0 195 26 298 72 40
18 58 20 122 13 147 -14 160 -9 225 93 48 75 115 141 173 170 71 37 115 102
148 217 37 128 82 194 183 270 119 90 148 147 255 515 25 85 53 172 62 193
l15 37 43 -21 c40 -21 50 -22 257 -16 304 8 457 38 527 103 32 30 33 34 33
110 1 134 32 310 68 380 70 139 76 165 83 439 5 193 11 276 28 365 24 123 73
327 90 373 l11 27 70 -35 c105 -53 210 -85 277 -85 118 0 244 58 327 151 45
51 130 204 121 219 -3 4 -17 11 -32 14 -16 4 -95 40 -178 81 -194 97 -243 106
-412 80 -66 -10 -142 -16 -170 -13 -79 8 -114 36 -203 168 -112 164 -174 216
-319 265 -114 39 -236 48 -397 31 -280 -30 -299 -30 -406 -2 -53 14 -197 66
-320 115 -394 157 -745 280 -946 331 -170 42 -279 54 -388 42 -113 -14 -366
-61 -379 -72 -23 -19 -451 -60 -630 -60 -99 0 -299 20 -405 40 -90 17 -741 92
-1165 135 -606 60 -862 69 -1205 43 -631 -49 -1446 -74 -1876 -58 -403 15
-595 32 -1264 110 -206 24 -235 24 -400 0z"/>
</g>
</svg>
