<svg height="512pt" viewBox="0 0 512.00007 512" width="512pt" xmlns="http://www.w3.org/2000/svg"><path d="m482 256c0 124.816406-101.183594 226-226 226s-226-101.183594-226-226 101.183594-226 226-226 226 101.183594 226 226zm0 0" fill="#4fc3f7"/><path d="m182.320312 92.128906c-4.246093-17.914062-21.785156-29.917968-40.355468-26.851562-1.480469.242187-2.894532-.617188-3.367188-2.039063-4.714844-14.144531-18.050781-24.34375-33.773437-24.34375-17.960938 0-32.804688 13.304688-35.242188 30.597657-.246093 1.742187-1.960937 2.878906-3.671875 2.453124-14.792968-3.660156-30.160156 4.792969-34.859375 19.460938-.355469 1.097656-1.3125 1.878906-2.453125 2.03125-11.921875 1.582031-21.113281 11.796875-21.097656 24.15625.019531 13.371094 11.566406 24.300781 24.9375 24.300781h160.21875c13.570312 0 25.015625-11.101562 24.839844-24.667969-.210938-16.515624-16.3125-27.585937-31.375-22.96875-1.648438.507813-3.402344-.449218-3.800782-2.128906zm0 0" fill="#e1f5fe"/><path d="m186.121094 94.257812c-1.648438.507813-3.402344-.449218-3.800782-2.128906-4.246093-17.914062-21.785156-29.917968-40.355468-26.851562-1.480469.242187-2.894532-.617188-3.367188-2.039063-4.714844-14.144531-18.050781-24.34375-33.773437-24.34375-5.359375 0-10.4375 1.191407-14.992188 3.3125 8.808594 4.105469 15.660157 11.710938 18.765625 21.03125.472656 1.421875 1.886719 2.28125 3.367188 2.035157 18.570312-3.0625 36.109375 8.941406 40.355468 26.855468.398438 1.679688 2.152344 2.632813 3.800782 2.128906 15.0625-4.617187 31.164062 6.453126 31.375 22.96875.175781 13.566407-11.269532 24.667969-24.839844 24.667969h30c13.570312 0 25.015625-11.101562 24.839844-24.667969-.210938-16.515624-16.3125-27.585937-31.375-22.96875zm0 0" fill="#b3e5fc"/><path d="m329.679688 223.15625c4.246093-17.914062 21.785156-29.917969 40.355468-26.851562 1.480469.242187 2.894532-.617188 3.367188-2.039063 4.714844-14.144531 18.050781-24.34375 33.773437-24.34375 17.960938 0 32.804688 13.304687 35.242188 30.597656.246093 1.742188 1.960937 2.878907 3.671875 2.453125 14.792968-3.660156 30.160156 4.792969 34.859375 19.460938.355469 1.09375 1.3125 1.878906 2.453125 2.03125 11.921875 1.582031 21.113281 11.796875 21.097656 24.15625-.019531 13.371094-11.574219 24.300781-24.945312 24.300781h-160.207032c-13.566406 0-25.019531-11.101563-24.84375-24.667969.210938-16.515625 16.3125-27.585937 31.378906-22.96875 1.644532.507813 3.398438-.449218 3.796876-2.128906zm0 0" fill="#e1f5fe"/><path d="m483.40625 224.464844c-1.144531-.152344-2.101562-.9375-2.453125-2.03125-4.703125-14.667969-20.070313-23.121094-34.863281-19.460938-1.707032.425782-3.425782-.710937-3.671875-2.453125-2.4375-17.292969-17.28125-30.597656-35.238281-30.597656-5.363282 0-10.449219 1.1875-15.007813 3.3125 10.714844 4.988281 18.539063 15.152344 20.246094 27.28125.246093 1.746094 1.964843 2.878906 3.671875 2.457031 14.792968-3.660156 30.160156 4.792969 34.863281 19.457032.351563 1.097656 1.308594 1.882812 2.453125 2.035156 11.917969 1.582031 21.109375 11.792968 21.09375 24.152344-.019531 13.371093-11.574219 24.304687-24.945312 24.304687h30c13.371093 0 24.925781-10.933594 24.945312-24.304687.015625-12.355469-9.175781-22.570313-21.09375-24.152344zm0 0" fill="#b3e5fc"/><path d="m370.5 46c0 21.261719-17.238281 38.5-38.5 38.5s-38.5-17.238281-38.5-38.5 17.238281-38.5 38.5-38.5 38.5 17.238281 38.5 38.5zm0 0" fill="#ffca28"/><path d="m332 7.5c-5.320312 0-10.390625 1.078125-15 3.03125 13.8125 5.847656 23.5 19.527344 23.5 35.46875s-9.6875 29.621094-23.5 35.46875c4.609375 1.953125 9.679688 3.03125 15 3.03125 21.261719 0 38.5-17.238281 38.5-38.5s-17.238281-38.5-38.5-38.5zm0 0" fill="#ffb300"/><path d="m60.636719 224h30v70h-30zm0 0" fill="#d66724"/><path d="m41.980469 304.5h136v90h-136zm0 0" fill="#d66724"/><path d="m147.980469 304.5h30v90h-30zm0 0" fill="#bf5c24"/><path d="m124.980469 394.5h-30v-45c0-8.285156 6.71875-15 15-15 8.285156 0 15 6.714844 15 15zm0 0" fill="#8a421a"/><path d="m189.984375 304.5h-160.003906c-1.945313 0-2.742188-2.507812-1.152344-3.632812l80-56.722657c.691406-.492187 1.613281-.492187 2.304687 0l80 56.722657c1.589844 1.125.796876 3.632812-1.148437 3.632812zm0 0" fill="#f04a41"/><path d="m191.136719 300.867188-80.003907-56.722657c-.6875-.492187-1.613281-.492187-2.300781 0l-13.847656 9.816407 66.152344 46.90625c1.585937 1.125.792969 3.632812-1.152344 3.632812h30c1.945313 0 2.738281-2.507812 1.152344-3.632812zm0 0" fill="#db443c"/><path d="m439.519531 504.5h-367.039062c-35.886719 0-64.980469-29.09375-64.980469-64.980469v-45.019531h497v45.019531c0 35.886719-29.09375 64.980469-64.980469 64.980469zm0 0" fill="#66cf32"/><path d="m474.5 394.5v45.019531c0 35.886719-29.09375 64.980469-64.980469 64.980469h30c35.886719 0 64.980469-29.09375 64.980469-64.980469v-45.019531zm0 0" fill="#5cba2d"/><path d="m275 361h30v33.5h-30zm0 0" fill="#d66724"/><path d="m333.492188 361h-86.984376c-1.882812 0-3.304687-1.203125-2.957031-2.503906l41.800781-156.785156c.964844-3.613282 8.332032-3.613282 9.292969 0l41.800781 156.785156c.347657 1.300781-1.070312 2.503906-2.953124 2.503906zm0 0" fill="#6fe036"/><path d="m336.449219 358.496094-41.800781-156.785156c-.964844-3.613282-8.332032-3.613282-9.292969 0l-10.355469 38.832031 31.449219 117.953125c.347656 1.300781-1.074219 2.503906-2.957031 2.503906h30c1.882812 0 3.300781-1.203125 2.957031-2.503906zm0 0" fill="#66cf32"/><path d="m395.511719 361h30v33.5h-30zm0 0" fill="#d66724"/><path d="m454.003906 361h-86.984375c-1.882812 0-3.304687-1.203125-2.957031-2.503906l41.800781-156.785156c.960938-3.613282 8.328125-3.613282 9.292969 0l41.800781 156.785156c.347657 1.300781-1.074219 2.503906-2.953125 2.503906zm0 0" fill="#6fe036"/><path d="m456.957031 358.496094-41.800781-156.785156c-.964844-3.613282-8.332031-3.613282-9.292969 0l-10.351562 38.832031 31.445312 117.953125c.347657 1.300781-1.070312 2.503906-2.953125 2.503906h30c1.878906 0 3.300782-1.203125 2.953125-2.503906zm0 0" fill="#66cf32"/><path d="m504.5 387h-55.1875c21.839844-32.148438 35.222656-69.050781 39.042969-107.832031 13.453125-3.867188 23.625-16.28125 23.644531-30.535157.023438-14.972656-10.476562-27.886718-24.859375-31.117187-.394531-.96875-.828125-1.914063-1.296875-2.832031-5.71875-32.050782-17.863281-62.027344-36.132812-89.105469-2.316407-3.433594-6.976563-4.339844-10.410157-2.023437-3.433593 2.316406-4.339843 6.976562-2.023437 10.414062 13.203125 19.570312 22.984375 40.761719 29.21875 63.210938-5.46875-2.152344-11.480469-3.015626-17.5625-2.324219-4.808594-18.785157-21.992188-32.433594-41.753906-32.433594-17.339844 0-32.808594 10.3125-39.578126 26.035156-19.394531-1.503906-37.542968 10.375-43.953124 28.652344-5.617188-.855469-11.363282-.152344-16.613282 1.949219l-5.140625-19.28125c-1.320312-4.949219-6.097656-8.277344-11.894531-8.277344-5.792969 0-10.574219 3.328125-11.894531 8.277344l-41.800781 156.789062c-.726563 2.738282-.144532 5.613282 1.609374 7.894532 1.941407 2.527343 5.15625 4.039062 8.59375 4.039062h20.992188v18.5h-11.5c-4.144531 0-7.5 3.359375-7.5 7.5s3.355469 7.5 7.5 7.5h178.597656.003906.007813 62.390625v37.519531c0 31.695313-25.785156 57.480469-57.480469 57.480469h-367.039062c-31.695313 0-57.480469-25.785156-57.480469-57.480469v-37.519531h208.863281c4.144531 0 7.5-3.359375 7.5-7.5s-3.355469-7.5-7.5-7.5h-38.382812v-75h4.503906c4.148437 0 7.785156-2.660156 9.046875-6.617188 1.261719-3.957031-.171875-8.234374-3.558594-10.632812l-80.003906-56.726562c-3.28125-2.324219-7.691406-2.324219-10.976562 0l-6.355469 4.503906v-11.027344h3.5c4.144531 0 7.5-3.359375 7.5-7.5s-3.355469-7.5-7.5-7.5h-52c-4.144531 0-7.5 3.359375-7.5 7.5s3.355469 7.5 7.5 7.5h3.503906v42.9375l-13.816406 9.792969c-1.203125-9.339844-1.824219-18.789063-1.824219-28.230469 0-37.414062 9.578125-74.179688 27.734375-106.605469h62.722656c4.144531 0 7.5-3.355469 7.5-7.5 0-4.140625-3.355469-7.5-7.5-7.5h-95.519531c-9.4375 0-17.425781-7.699219-17.4375-16.8125-.011719-8.421875 6.257812-15.605469 14.585938-16.710937 3.996093-.53125 7.375-3.347656 8.605468-7.175782 3.476563-10.847656 14.855469-17.199218 25.914063-14.46875 2.882812.714844 5.945312.171876 8.402343-1.488281 2.445313-1.652343 4.089844-4.277343 4.5-7.199219 1.9375-13.765624 13.894532-24.144531 27.8125-24.144531 12.117188 0 22.832032 7.722657 26.660157 19.21875 1.652343 4.941407 6.578125 7.910157 11.703125 7.0625 14.480468-2.382812 28.457031 6.917969 31.835937 21.183594.664063 2.789063 2.472657 5.210937 4.964844 6.644531 2.519531 1.441406 5.554687 1.777344 8.332031.925782 5.050782-1.546876 10.449219-.613282 14.804688 2.566406 4.300781 3.136718 6.808594 7.996094 6.875 13.328125.058594 4.386719-1.667969 8.582031-4.859375 11.8125-3.300781 3.34375-7.847657 5.257812-12.480469 5.257812h-32.605469c-4.144531 0-7.5 3.359375-7.5 7.5 0 4.144531 3.355469 7.5 7.5 7.5h32.605469c8.617188 0 17.058594-3.542969 23.152344-9.71875 6.035156-6.109375 9.296875-14.117187 9.1875-22.542969-.128906-10.101562-4.878906-19.308593-13.03125-25.253906-6.847656-4.992187-15.40625-7.039062-23.613282-5.796875-4.554687-12.976562-15.023437-22.71875-27.648437-26.742187 29.550781-14.332032 62.109375-21.839844 95.296875-21.839844 10.183594 0 20.394531.71875 30.453125 2.121094-.292969 2.085937-.453125 4.214844-.453125 6.378906 0 25.363281 20.636719 46 46 46 16.476562 0 30.945312-8.710938 39.074219-21.765625 17.484375 10.847656 33.335937 24.082031 47.1875 39.429687 1.480469 1.640626 3.519531 2.476563 5.570312 2.476563 1.789063 0 3.589844-.636719 5.023438-1.933594 3.074219-2.773437 3.316406-7.519531.539062-10.59375-15.359375-17.015625-33.015625-31.597656-52.546875-43.425781.746094-3.28125 1.152344-6.6875 1.152344-10.1875 0-25.363281-20.636719-46-46-46-17.851562 0-33.347656 10.226562-40.96875 25.125-11.554688-1.738281-23.308594-2.625-35.03125-2.625-40.160156 0-79.46875 10.285156-114.226562 29.808594-7.664063-12.792969-21.570313-20.914063-36.949219-20.914063-19.765625 0-36.953125 13.652344-41.757813 32.433594-16.226562-1.851563-32.003906 7.402344-38.207031 22.664063-14.371094 3.214843-24.8789062 16.128906-24.859375 31.109374.0234375 17.234376 14.878906 31.792969 32.4375 31.792969h15.78125c-16.855469 32.828125-25.71875 69.417969-25.71875 106.605469 0 12.726562 1.039062 25.472656 3.082031 37.972656l-1.09375.777344c-3.386719 2.402344-4.816406 6.675781-3.554687 10.636719 1.1875 3.726562 4.484375 6.300781 8.332031 6.585937 1.496094 6.074219 3.246094 12.097656 5.214844 17.996094v57.03125h-26.980469c-4.144531 0-7.5 3.359375-7.5 7.5v45.019531c0 39.964844 32.515625 72.480469 72.480469 72.480469h367.039062c39.964844 0 72.480469-32.515625 72.480469-72.480469v-45.019531c0-4.140625-3.355469-7.5-7.5-7.5zm-171.007812-18.5c3.4375 0 6.648437-1.511719 8.59375-4.042969 1.753906-2.277343 2.339843-5.152343 1.609374-7.890625l-20.300781-76.148437h53.722657l-20.300782 76.148437c-.730468 2.734375-.144531 5.613282 1.605469 7.890625 1.945313 2.53125 5.15625 4.042969 8.59375 4.042969h20.992187v18.5h-75.507812v-18.5zm39.664062-15 37.355469-140.105469 37.351562 140.105469zm85.835938-16.480469-15.089844-56.597656h29.246094c-2.171876 19.539063-6.949219 38.542969-14.15625 56.597656zm-15.640626 31.480469c-3.210937 5.335938-6.660156 10.550781-10.34375 15.625v-15.625zm-119.648437-136.03125c2.78125.84375 5.8125.496094 8.320313-.945312 2.484374-1.429688 4.289062-3.84375 4.953124-6.636719 3.375-14.265625 17.378907-23.570313 31.804688-21.191407 5.152344.871094 10.089844-2.09375 11.734375-7.050781 3.835937-11.5 14.550781-19.222656 26.664063-19.222656 13.914062 0 25.871093 10.378906 27.808593 24.125.40625 2.929687 2.046875 5.558594 4.503907 7.21875 2.46875 1.664063 5.539062 2.203125 8.398437 1.484375 11.054687-2.734375 22.4375 3.621094 25.910156 14.453125 1.222657 3.839844 4.605469 6.664063 8.605469 7.191406 8.332031 1.109375 14.605469 8.296875 14.59375 16.714844-.015625 9.109375-8 16.808594-17.441406 16.808594h-39.65625l-17.5-65.640625c-1.316406-4.953125-6.097656-8.277344-11.894532-8.277344-5.792968 0-10.574218 3.324219-11.894531 8.277344l-17.5 65.640625h-61.71875l-8.449219-31.683594c3.90625-2.066406 8.503907-2.574219 12.757813-1.265625zm-33.703125-19.074219 16.179688 60.683594c0 .007813 0 .015625.003906.019531l21.167968 79.402344h-74.703124zm-7.5 173.605469v-18.5h15v18.5zm120.511719 0v-18.5h15v18.5zm-71.011719-372c17.09375 0 31 13.90625 31 31s-13.90625 31-31 31-31-13.90625-31-31 13.90625-31 31-31zm-229.519531 372v-37.5c0-4.136719 3.363281-7.5 7.5-7.5s7.5 3.363281 7.5 7.5v37.5zm-34.339844-155.5h15v21.664062l-15 10.636719zm41.839844 21.019531 62.734375 44.480469h-125.464844zm-60.5 59.480469h121v75h-38v-37.5c0-12.40625-10.09375-22.5-22.5-22.5s-22.5 10.09375-22.5 22.5v37.5h-38zm0 0"/><path d="m268.371094 435.089844c0-4.144532-3.355469-7.5-7.5-7.5h-191.847656c-4.144532 0-7.5 3.355468-7.5 7.5 0 4.140625 3.355468 7.5 7.5 7.5h191.847656c4.144531 0 7.5-3.359375 7.5-7.5zm0 0"/><path d="m442.976562 442.589844c4.144532 0 7.5-3.359375 7.5-7.5 0-4.144532-3.355468-7.5-7.5-7.5h-59.773437c-4.144531 0-7.5 3.355468-7.5 7.5 0 4.140625 3.355469 7.5 7.5 7.5zm0 0"/><path d="m138.746094 458.761719c-4.140625 0-7.5 3.355469-7.5 7.5 0 4.140625 3.359375 7.5 7.5 7.5h64.71875c4.140625 0 7.5-3.359375 7.5-7.5 0-4.144531-3.359375-7.5-7.5-7.5zm0 0"/><path d="m362.574219 473.761719c4.144531 0 7.5-3.359375 7.5-7.5 0-4.144531-3.355469-7.5-7.5-7.5h-46.796875c-4.144532 0-7.5 3.355469-7.5 7.5 0 4.140625 3.355468 7.5 7.5 7.5zm0 0"/></svg>