<?xml version="1.0" encoding="iso-8859-1"?>
<!-- Generator: Adobe Illustrator 19.0.0, SVG Export Plug-In . SVG Version: 6.00 Build 0)  -->
<svg xmlns="http://www.w3.org/2000/svg" xmlns:xlink="http://www.w3.org/1999/xlink" version="1.1" id="Layer_1" x="0px" y="0px" viewBox="0 0 511 511" style="enable-background:new 0 0 511 511;" xml:space="preserve" width="512" height="512">
<g>
	<rect x="232" y="7" style="fill:#4F5866;" width="48" height="416"/>
	<rect x="256" y="7" style="fill:#2F3A4D;" width="24" height="416"/>
	<rect x="200" y="423" style="fill:#2F3A4D;" width="112" height="32"/>
	<rect x="168" y="455" style="fill:#4F5866;" width="176" height="48"/>
	<path style="fill:#EFEFEF;" d="M24,279h160c0,44.183-35.817,80-80,80S24,323.183,24,279z"/>
	<path style="fill:#BFBCCC;" d="M160,279c0,40.104-29.51,73.311-68,79.102c3.915,0.589,7.921,0.898,12,0.898   c44.183,0,80-35.817,80-80H160z"/>
	<path style="fill:#EFEFEF;" d="M328,279h160c0,44.183-35.817,80-80,80S328,323.183,328,279z"/>
	<path style="fill:#BFBCCC;" d="M464,279c0,40.104-29.51,73.311-68,79.102c3.915,0.589,7.921,0.898,12,0.898   c44.183,0,80-35.817,80-80H464z"/>
	<circle style="fill:#BFBCCC;" cx="256" cy="127" r="32"/>
	<g>
		<g>
			<rect x="248" y="119.5" style="fill:#FFFFFF;" width="16" height="15"/>
		</g>
	</g>
	<path d="M476.98,272l-57.684-137H448v-15H294.777c-3.514-19-19.811-32.25-39.027-32.25c-5.888,0-10.75,1.055-16.75,3.375V15h33v64   h15V0h-63v103h0.658c-3.658,4.765-6.253,10-7.434,17H64v15h28.704L35.02,272H16v7c0,48.248,39.252,87.5,87.5,87.5   S191,327.248,191,279v-7h-18.02l-57.684-137h101.928c1.181,6,3.777,11.235,7.434,16H224v248h15V162.875   c6,2.32,10.612,3.625,16.5,3.625s11.5-1.305,16.5-3.625V416h-80v32h-32v63h191v-63h-32v-32h-32V151h0.342   c3.658-4.765,6.253-10,7.434-16h101.928L339.02,272H320v7c0,48.248,39.252,87.5,87.5,87.5S495,327.248,495,279v-7H476.98z M336,463   v33H175v-33h17.5h127H336z M304,448h-97v-17h97V448z M104,352c-37.444,0-68.349-29-72.115-65h144.229   C172.349,323,141.444,352,104,352z M51.296,272L104,146.827L156.704,272H51.296z M231.5,127c0-13.509,10.991-24.5,24.5-24.5   c13.51,0,24.5,10.991,24.5,24.5s-10.99,24.5-24.5,24.5C242.491,151.5,231.5,140.509,231.5,127z M408,146.827L460.704,272H355.296   L408,146.827z M408,352c-37.444,0-68.35-29-72.115-65h144.23C476.35,323,445.444,352,408,352z"/>
</g>















</svg>
