<?xml version="1.0" encoding="iso-8859-1"?>
<!-- Generator: Adobe Illustrator 19.0.0, SVG Export Plug-In . SVG Version: 6.00 Build 0)  -->
<svg version="1.1" id="Layer_1" xmlns="http://www.w3.org/2000/svg" xmlns:xlink="http://www.w3.org/1999/xlink" x="0px" y="0px"
	 viewBox="0 0 512.001 512.001" style="enable-background:new 0 0 512.001 512.001;" xml:space="preserve">
<path style="fill:#1BBC86;" d="M497.027,370.464L343.664,249.703c-4.589-3.606-11.326-0.329-11.326,5.499v80.302H157.785
	c-42.095,0-85.252-11.674-117.128-39.355c-4.993-4.336-12.689,0.081-11.464,6.579c2.167,11.508,6.581,28.841,15.314,46.05
	c22.407,44.165,60.519,66.558,113.277,66.558h173.2v76.663c0,2.65,1.497,5.073,3.867,6.258c2.327,1.168,5.177,0.955,7.326-0.661
	l154.719-116.039c1.739-1.303,2.774-3.341,2.799-5.515C499.721,373.87,498.735,371.809,497.027,370.464z"/>
<path style="fill:#149362;" d="M497.027,370.464l-19.999-15.747C331.305,464.008,341.318,457.254,337.98,457.254
	c-3.839,0-6.996-3.111-6.996-6.998V492c0,2.65,1.497,5.073,3.867,6.258c2.327,1.168,5.177,0.955,7.326-0.661l154.719-116.039
	c1.739-1.303,2.774-3.341,2.799-5.515C499.721,373.87,498.735,371.809,497.027,370.464z"/>
<path style="fill:#E22437;" d="M482.579,209.965C469.749,141.783,426.92,97.356,353.987,97.356h-173.2V20.693
	c0-5.76-6.594-9.05-11.194-5.598L14.875,131.134c-3.67,2.752-3.743,8.252-0.13,11.096
	c165.202,130.081,154.221,122.26,157.693,122.26c3.832,0,6.996-3.106,6.996-6.998V177.19h174.553
	c42.193,0,85.331,11.731,117.128,39.354C476.12,220.886,483.806,216.452,482.579,209.965z"/>
<g>
	<path style="fill:#C61A33;" d="M172.439,225.758c-3.465,0,6.739,7.216-139.654-108.055l-17.91,13.431
		c-3.67,2.752-3.743,8.252-0.13,11.096l153.365,120.761c4.574,3.599,11.325,0.34,11.325-5.499V218.76
		C179.434,222.649,176.274,225.758,172.439,225.758z"/>
	<path style="fill:#C61A33;" d="M482.579,209.965c-1.515-8.047-4.135-18.941-8.553-30.647
		c-4.667-1.152-39.836-40.859-120.038-40.859H222.251c-1.804,0.407-4.514,0.633-8.323,0.633c-25.43,0-32.706,13.977-34.493,24.999
		v13.099h174.553c42.193,0,85.331,11.731,117.128,39.354C476.12,220.886,483.806,216.452,482.579,209.965z"/>
</g>
<path style="fill:#149362;" d="M292.899,373.594H157.785c-58.482,0-98.165-27.756-118.656-78.434
	c-5.198-2.534-10.994,1.949-9.935,7.568c12.84,68.192,55.659,112.609,128.592,112.609h173.2v-9.923
	C329.712,393.067,322.942,373.594,292.899,373.594z"/>
<path d="M507.797,369.349L336.724,234.646c-4.877-3.839-12.081-0.366-12.081,5.864v86.829H204.155c-4.123,0-7.464,3.341-7.464,7.464
	c0,4.123,3.341,7.464,7.464,7.464h127.951c4.123,0,7.464-3.341,7.464-7.464v-78.916l151.363,119.184l-152.71,114.532v-75.324
	c0-4.123-3.341-7.464-7.464-7.464h-172.42c-67.113,0-107.673-39.768-120.413-104.623c4.437,3.774,9.82,7.871,16.204,11.958
	c45.851,29.344,93.546,28.118,120.669,28.118c4.123,0,7.464-3.341,7.464-7.464s-3.341-7.464-7.464-7.464
	c-21.165,0-68.127,2.364-111.948-25.334c-19.828-12.534-28.984-25.257-29.06-25.363c-4.23-6.041-13.776-2.891-13.576,4.481
	c0.038,1.43,1.142,35.401,18.474,69.833c16.256,32.292,50.208,70.786,119.648,70.786h164.957v82.787
	c0,6.143,7.033,9.651,11.942,5.971l172.42-129.315c1.854-1.39,2.958-3.565,2.984-5.883
	C510.669,372.983,509.618,370.783,507.797,369.349z"/>
<path d="M187.355,271.491v-86.829h166.303c45.796,0,77.205,13.778,95.488,25.334c19.828,12.534,28.984,25.257,29.06,25.363
	c4.227,6.04,13.776,2.891,13.576-4.481c-0.038-1.43-1.142-35.401-18.475-69.833c-16.256-32.292-50.209-70.786-119.649-70.786
	h-19.147c-4.123,0-7.464,3.341-7.464,7.464s3.341,7.464,7.464,7.464h19.147c67.116,0,107.674,39.77,120.414,104.623
	c-32.846-27.932-76.806-40.075-120.414-40.075H179.892c-4.123,0-7.464,3.341-7.464,7.464v78.916L21.067,136.932L173.776,22.4v75.324
	c0,4.123,3.341,7.464,7.464,7.464h124.913c4.123,0,7.464-3.341,7.464-7.464s-3.341-7.464-7.464-7.464H188.703V7.473
	c0-6.135-7.027-9.657-11.942-5.971L4.342,130.818c-3.919,2.939-3.988,8.804-0.139,11.835l171.072,134.702
	C180.166,281.206,187.355,277.706,187.355,271.491z"/>
<g>
</g>
<g>
</g>
<g>
</g>
<g>
</g>
<g>
</g>
<g>
</g>
<g>
</g>
<g>
</g>
<g>
</g>
<g>
</g>
<g>
</g>
<g>
</g>
<g>
</g>
<g>
</g>
<g>
</g>
</svg>
