<?xml version="1.0" encoding="iso-8859-1"?>
<!-- Generator: Adobe Illustrator 19.0.0, SVG Export Plug-In . SVG Version: 6.00 Build 0)  -->
<svg version="1.1" id="Capa_1" xmlns="http://www.w3.org/2000/svg" xmlns:xlink="http://www.w3.org/1999/xlink" x="0px" y="0px"
	 viewBox="0 0 475.951 475.951" style="enable-background:new 0 0 475.951 475.951;" xml:space="preserve">
<path style="fill:#D4E1F4;" d="M440.686,252.865v74.188c0,27.69-8.359,53.812-22.988,76.278
	c-14.629,21.943-36.049,40.229-61.649,50.678l-15.151,6.269l-13.061-5.747c-16.196-6.792-30.302-16.718-42.318-29.257
	c-25.6-25.078-40.751-60.082-40.751-97.176v-17.763v-57.469l33.437-18.286l63.216-35.004L440.686,252.865z"/>
<g>
	<circle style="fill:#4DCFE0;" cx="183.641" cy="107.624" r="91.951"/>
	<path style="fill:#4DCFE0;" d="M285.518,425.273L285.518,425.273l-250.253,0.522v-77.845c0-82.025,66.351-148.376,148.376-148.376
		c18.286,0,35.004,3.135,51.2,8.882c15.673,5.747,30.302,14.106,42.841,25.078l0.522,1.045l-33.437,18.286v57.469v17.763
		C244.767,365.192,259.918,400.196,285.518,425.273z"/>
</g>
<g>
	<path style="fill:#3A2C51;" d="M448,239.282l-99.265-53.29c-4.702-2.612-10.449-2.612-15.151,0l-53.812,29.78
		c-10.449-7.837-22.465-14.629-35.004-19.853c27.69-19.331,45.975-51.722,45.975-88.294C290.743,48.065,242.678,0,183.118,0
		S76.016,48.065,76.016,107.624c0,36.571,18.286,68.963,45.976,88.294c-60.082,24.555-102.4,83.069-102.4,152.033v77.845
		c0,8.882,6.792,15.673,15.673,15.673h244.506c12.539,11.494,26.645,20.898,41.796,27.167l13.061,5.747
		c2.09,1.045,4.18,1.567,6.269,1.567c2.09,0,4.18-0.522,5.747-1.045l15.151-6.269c27.69-11.494,51.722-31.347,68.963-56.424
		c16.718-25.6,25.6-54.857,25.6-84.637v-74.71C456.359,247.118,453.224,241.894,448,239.282z M107.363,107.624
		c0-42.318,33.959-76.278,76.278-76.278s76.278,33.959,76.278,76.278s-33.959,76.278-76.278,76.278S107.363,149.943,107.363,107.624
		z M50.939,347.951c0-73.143,59.559-132.702,132.702-132.702c15.673,0,30.825,2.612,45.976,7.837
		c6.792,2.612,13.584,5.747,19.853,9.404l-12.016,6.792c-5.224,2.612-8.359,7.837-8.359,13.584v75.233
		c0,29.257,8.882,57.992,24.033,82.024H50.939V347.951z M425.012,327.053c0,23.51-7.314,47.02-20.376,67.396
		c-13.584,19.853-32.914,36.049-54.857,44.931l-8.882,3.657l-7.314-3.135c-14.106-5.747-26.122-14.629-37.616-26.122
		c-22.988-22.465-36.049-53.812-36.049-86.204v-65.306l25.078-13.584l0,0l56.425-31.347l83.592,44.931V327.053z"/>
	<path style="fill:#3A2C51;" d="M327.314,374.596c-4.702,0-8.882-2.09-12.016-5.747l-26.122-30.824
		c-5.747-6.792-4.702-16.718,1.567-21.943c6.792-5.747,16.718-4.702,21.943,1.567l16.196,18.808l48.588-39.706
		c6.792-5.224,16.718-4.702,21.943,2.09s4.702,16.718-2.09,21.943l-60.082,50.155C334.106,373.551,330.971,374.596,327.314,374.596z
		"/>
</g>
<g>
</g>
<g>
</g>
<g>
</g>
<g>
</g>
<g>
</g>
<g>
</g>
<g>
</g>
<g>
</g>
<g>
</g>
<g>
</g>
<g>
</g>
<g>
</g>
<g>
</g>
<g>
</g>
<g>
</g>
</svg>
